<svg width="3000" height="2500" viewBox="0 0 3000 2500" fill="none" xmlns="http://www.w3.org/2000/svg">
<rect width="3000" height="2500" fill="#E5E5E5"/>
<g id="Flowchart-svg">
<rect x="0.5" y="0.5" width="2999" height="2499" fill="#0D1511"/>
<path id="Line 6" d="M2782.47 223.182L2573.47 528.5L2573.47 756" stroke="url(#paint0_linear)" stroke-opacity="0.1"/>
<g id="question-general1">
<g id="Rectangle 15">
<mask id="path-3-inside-1" fill="white">
<path d="M1225 573H1359V689.246L1291.55 704L1258.28 696.623L1225 689.246V573Z"/>
</mask>
<path d="M1225 573H1359V689.246L1291.55 704L1258.28 696.623L1225 689.246V573Z" stroke="#7DAF92" stroke-opacity="0.4" stroke-width="4" mask="url(#path-3-inside-1)"/>
</g>
<g id="Rectangle 16">
<mask id="path-4-inside-2" fill="white">
<path d="M1230 578H1354V685.372L1291.59 699L1260.79 692.186L1230 685.372V578Z"/>
</mask>
<path d="M1230 578H1354V685.372L1291.59 699L1260.79 692.186L1230 685.372V578Z" stroke="#7DAF92" stroke-opacity="0.4" stroke-width="2" mask="url(#path-4-inside-2)"/>
</g>
<text id="Should employees who laugh during work be fired immediately?" fill="#B9FED6" xml:space="preserve" style="white-space: pre" font-family="Dosis" font-size="14" font-weight="600" letter-spacing="0em"><tspan x="1241.14" y="616.53">Should employees </tspan><tspan x="1244.11" y="634.53">who laugh during </tspan><tspan x="1255.15" y="652.53">work be fired </tspan><tspan x="1254.65" y="670.53">immediately?</tspan></text>
<g id="No">
<g id="Rectangle 5">
<rect x="1225" y="713" width="50" height="29" rx="12" fill="black"/>
<rect x="1225.5" y="713.5" width="49" height="28" rx="11.5" stroke="#7DAF92" stroke-opacity="0.4"/>
</g>
<text id="No_2" fill="#B9FED6" xml:space="preserve" style="white-space: pre" font-family="Dosis" font-size="14" font-weight="600" letter-spacing="0em"><tspan x="1242.47" y="732.53">No</tspan></text>
</g>
<g id="answer-general1-yes">
<g id="Rectangle 6">
<rect x="1309" y="713" width="50" height="29" rx="12" fill="black"/>
<rect x="1309.5" y="713.5" width="49" height="28" rx="11.5" stroke="#7DAF92" stroke-opacity="0.4"/>
</g>
<text id="Yes" fill="#B9FED6" xml:space="preserve" style="white-space: pre" font-family="Dosis" font-size="14" font-weight="600" letter-spacing="0em"><tspan x="1324.15" y="731.53">Yes</tspan></text>
</g>
<path id="Union" fill-rule="evenodd" clip-rule="evenodd" d="M1354 578H1355H1362H1363V579V692.345L1292 707.896V754H1291V707.883L1256.26 700.172L1221 692.345V579V578H1222H1229H1230V577V570V569H1231H1353H1354V570V577V578ZM1354 579H1362V691.54L1291.53 706.976L1256.48 699.196L1222 691.542V579H1230H1231V578V570H1353V578V579H1354Z" fill="#7DAF92" fill-opacity="0.4"/>
<path id="Union_2" fill-rule="evenodd" clip-rule="evenodd" d="M1224 751.5L1218 753.5L1224 755.5L1221.92 754H1362.08L1360 755.5L1366 753.5L1360 751.5L1362.08 753H1221.92L1224 751.5Z" fill="#7DAF92" fill-opacity="0.4"/>
</g>
<g id="end-true">
<g id="Rectangle 15_2">
<mask id="path-14-inside-3" fill="white">
<path d="M1403 2212H1537V2328.25L1469.55 2343L1436.28 2335.62L1403 2328.25V2212Z"/>
</mask>
<path d="M1403 2212H1537V2328.25L1469.55 2343L1436.28 2335.62L1403 2328.25V2212Z" stroke="#E4D3D3" stroke-width="4" mask="url(#path-14-inside-3)"/>
</g>
<g id="Rectangle 16_2">
<mask id="path-15-inside-4" fill="white">
<path d="M1408 2217H1532V2324.37L1469.59 2338L1438.79 2331.19L1408 2324.37V2217Z"/>
</mask>
<path d="M1408 2217H1532V2324.37L1469.59 2338L1438.79 2331.19L1408 2324.37V2217Z" stroke="#E4D3D3" stroke-width="2" mask="url(#path-15-inside-4)"/>
</g>
<g id="Congrats! You made it through! Only 1 question remains: Will you hire me?">
<text fill="#F2BDB4" xml:space="preserve" style="white-space: pre" font-family="Dosis" font-size="14" font-weight="600" letter-spacing="0em"><tspan x="1415.46" y="2235.53">Congrats! You made </tspan><tspan x="1424.62" y="2253.53">it through! Only 1 </tspan><tspan x="1421.01" y="2271.53">question remains:&#10;</tspan><tspan x="1469.1" y="2289.53"> &#10;</tspan></text>
<text fill="#F2BDB4" xml:space="preserve" style="white-space: pre" font-family="Dosis" font-size="16" font-weight="bold" letter-spacing="0em"><tspan x="1414.44" y="2309.53">Will you hire me?</tspan></text>
</g>
<g id="No_3">
<rect id="Rectangle 5_2" x="1403.5" y="2352.5" width="49" height="28" rx="11.5" fill="black" stroke="#E4D3D3"/>
<text id="No_4" fill="#F2BDB4" xml:space="preserve" style="white-space: pre" font-family="Dosis" font-size="14" font-weight="600" letter-spacing="0em"><tspan x="1420.47" y="2371.53">No</tspan></text>
</g>
<g id="Yes_2">
<rect id="Rectangle 6_2" x="1487.5" y="2352.5" width="49" height="28" rx="11.5" fill="black" stroke="#E4D3D3"/>
<text id="Yes!" fill="#F2BDB4" xml:space="preserve" style="white-space: pre" font-family="Dosis" font-size="14" font-weight="600" letter-spacing="0em"><tspan x="1500.18" y="2370.53">Yes!</tspan></text>
</g>
<path id="Union_3" fill-rule="evenodd" clip-rule="evenodd" d="M1532 2217H1533H1540H1541V2218V2331.34L1470 2346.9V2393H1469V2346.88L1434.26 2339.17L1399 2331.34V2218V2217H1400H1407H1408V2216V2209V2208H1409H1531H1532V2209V2216V2217ZM1532 2218H1540V2330.54L1469.53 2345.98L1434.48 2338.2L1400 2330.54V2218H1408H1409V2217V2209H1531V2217V2218H1532Z" fill="#E4D3D3"/>
<path id="Union_4" fill-rule="evenodd" clip-rule="evenodd" d="M1402 2390.5L1396 2392.5L1402 2394.5L1399.92 2393H1540.08L1538 2394.5L1544 2392.5L1538 2390.5L1540.08 2392H1399.92L1402 2390.5Z" fill="#E4D3D3"/>
</g>
<g id="question-start">
<g id="Rectangle 15_3">
<mask id="path-23-inside-5" fill="white">
<path d="M1433 1161H1567V1277.25L1499.55 1292L1466.28 1284.62L1433 1277.25V1161Z"/>
</mask>
<path d="M1433 1161H1567V1277.25L1499.55 1292L1466.28 1284.62L1433 1277.25V1161Z" stroke="#7DAF92" stroke-opacity="0.4" stroke-width="4" mask="url(#path-23-inside-5)"/>
</g>
<g id="Rectangle 16_3">
<mask id="path-24-inside-6" fill="white">
<path d="M1438 1166H1562V1273.37L1499.59 1287L1468.79 1280.19L1438 1273.37V1166Z"/>
</mask>
<path d="M1438 1166H1562V1273.37L1499.59 1287L1468.79 1280.19L1438 1273.37V1166Z" stroke="#7DAF92" stroke-opacity="0.4" stroke-width="2" mask="url(#path-24-inside-6)"/>
</g>
<text id="Is this about ux/ui design or creative writing?" fill="#B9FED6" xml:space="preserve" style="white-space: pre" font-family="Dosis" font-size="14" font-weight="600" letter-spacing="0em"><tspan x="1448.4" y="1204.53">Is this about  ux/ui </tspan><tspan x="1450.97" y="1222.53">design or creative </tspan><tspan x="1477.73" y="1240.53">writing?</tspan></text>
<g id="No_5">
<g id="Rectangle 5_3">
<rect x="1429" y="1301" width="61" height="29" rx="12" fill="black"/>
<rect x="1429.5" y="1301.5" width="60" height="28" rx="11.5" stroke="#7DAF92" stroke-opacity="0.4"/>
</g>
<text id="Designer" fill="#B9FED6" xml:space="preserve" style="white-space: pre" font-family="Dosis" font-size="14" font-weight="600" letter-spacing="0em"><tspan x="1435.78" y="1320.53">Designer</tspan></text>
</g>
<g id="question-start-writer">
<g id="Rectangle 6_3">
<rect x="1509" y="1301" width="62" height="29" rx="12" fill="black"/>
<rect x="1509.5" y="1301.5" width="61" height="28" rx="11.5" stroke="#7DAF92" stroke-opacity="0.4"/>
</g>
<text id="Writer" fill="#B9FED6" xml:space="preserve" style="white-space: pre" font-family="Dosis" font-size="14" font-weight="600" letter-spacing="0em"><tspan x="1523.33" y="1320.53">Writer</tspan></text>
</g>
<path id="Union_5" fill-rule="evenodd" clip-rule="evenodd" d="M1562 1166H1563H1570H1571V1167V1280.34L1500 1295.9V1342H1499V1295.88L1464.26 1288.17L1429 1280.34V1167V1166H1430H1437H1438V1165V1158V1157H1439H1561H1562V1158V1165V1166ZM1562 1167H1570V1279.54L1499.53 1294.98L1464.48 1287.2L1430 1279.54V1167H1438H1439V1166V1158H1561V1166V1167H1562Z" fill="#7DAF92" fill-opacity="0.4"/>
<g id="Union_6">
<mask id="path-33-inside-7" fill="white">
<path fill-rule="evenodd" clip-rule="evenodd" d="M1432 1339.5L1426 1341.5L1432 1343.5L1429.92 1342H1570.08L1568 1343.5L1574 1341.5L1568 1339.5L1570.08 1341H1429.92L1432 1339.5Z"/>
</mask>
<path fill-rule="evenodd" clip-rule="evenodd" d="M1432 1339.5L1426 1341.5L1432 1343.5L1429.92 1342H1570.08L1568 1343.5L1574 1341.5L1568 1339.5L1570.08 1341H1429.92L1432 1339.5Z" fill="#7DAF92" fill-opacity="0.4"/>
<path d="M1426 1341.5L1425.68 1340.55L1422.84 1341.5L1425.68 1342.45L1426 1341.5ZM1432 1339.5L1432.59 1340.31L1431.68 1338.55L1432 1339.5ZM1432 1343.5L1431.68 1344.45L1432.59 1342.69L1432 1343.5ZM1429.92 1342V1341H1426.83L1429.34 1342.81L1429.92 1342ZM1570.08 1342L1570.66 1342.81L1573.17 1341H1570.08V1342ZM1568 1343.5L1567.41 1342.69L1568.32 1344.45L1568 1343.5ZM1574 1341.5L1574.32 1342.45L1577.16 1341.5L1574.32 1340.55L1574 1341.5ZM1568 1339.5L1568.32 1338.55L1567.41 1340.31L1568 1339.5ZM1570.08 1341V1342H1573.17L1570.66 1340.19L1570.08 1341ZM1429.92 1341L1429.34 1340.19L1426.83 1342H1429.92V1341ZM1426.32 1342.45L1432.32 1340.45L1431.68 1338.55L1425.68 1340.55L1426.32 1342.45ZM1432.32 1342.55L1426.32 1340.55L1425.68 1342.45L1431.68 1344.45L1432.32 1342.55ZM1429.34 1342.81L1431.41 1344.31L1432.59 1342.69L1430.51 1341.19L1429.34 1342.81ZM1429.92 1343H1570.08V1341H1429.92V1343ZM1569.49 1341.19L1567.41 1342.69L1568.59 1344.31L1570.66 1342.81L1569.49 1341.19ZM1568.32 1344.45L1574.32 1342.45L1573.68 1340.55L1567.68 1342.55L1568.32 1344.45ZM1574.32 1340.55L1568.32 1338.55L1567.68 1340.45L1573.68 1342.45L1574.32 1340.55ZM1567.41 1340.31L1569.49 1341.81L1570.66 1340.19L1568.59 1338.69L1567.41 1340.31ZM1570.08 1340H1429.92V1342H1570.08V1340ZM1431.41 1338.69L1429.34 1340.19L1430.51 1341.81L1432.59 1340.31L1431.41 1338.69Z" fill="#7DAF92" fill-opacity="0.4" mask="url(#path-33-inside-7)"/>
</g>
</g>
<g id="question-design1">
<g id="Rectangle 15_4">
<mask id="path-35-inside-8" fill="white">
<path d="M830 768H964V884.246L896.553 899L863.277 891.623L830 884.246V768Z"/>
</mask>
<path d="M830 768H964V884.246L896.553 899L863.277 891.623L830 884.246V768Z" stroke="#7DAF92" stroke-opacity="0.4" stroke-width="4" mask="url(#path-35-inside-8)"/>
</g>
<g id="Rectangle 16_4">
<mask id="path-36-inside-9" fill="white">
<path d="M835 773H959V880.372L896.587 894L865.793 887.186L835 880.372V773Z"/>
</mask>
<path d="M835 773H959V880.372L896.587 894L865.793 887.186L835 880.372V773Z" stroke="#7DAF92" stroke-opacity="0.4" stroke-width="2" mask="url(#path-36-inside-9)"/>
</g>
<text id="To be perfectly honest, I haven&#226;&#128;&#153;t designed this path yet. So... hire me as a writer instead?" fill="#B9FED6" xml:space="preserve" style="white-space: pre" font-family="Dosis" font-size="14" font-weight="600" letter-spacing="0em"><tspan x="855.964" y="797.53">To be perfectly </tspan><tspan x="850.502" y="815.53">honest,  I haven&#x2019;t </tspan><tspan x="846.414" y="833.53">designed this path </tspan><tspan x="840.043" y="851.53">yet. So... hire me as a </tspan><tspan x="855.479" y="869.53">writer instead?</tspan></text>
</g>
<g id="question-general4">
<g id="Rectangle 15_5">
<mask id="path-38-inside-10" fill="white">
<path d="M2382 1559H2516V1675.25L2448.55 1690L2415.28 1682.62L2382 1675.25V1559Z"/>
</mask>
<path d="M2382 1559H2516V1675.25L2448.55 1690L2415.28 1682.62L2382 1675.25V1559Z" stroke="#7DAF92" stroke-opacity="0.4" stroke-width="4" mask="url(#path-38-inside-10)"/>
</g>
<g id="Rectangle 16_5">
<mask id="path-39-inside-11" fill="white">
<path d="M2387 1564H2511V1671.37L2448.59 1685L2417.79 1678.19L2387 1671.37V1564Z"/>
</mask>
<path d="M2387 1564H2511V1671.37L2448.59 1685L2417.79 1678.19L2387 1671.37V1564Z" stroke="#7DAF92" stroke-opacity="0.4" stroke-width="2" mask="url(#path-39-inside-11)"/>
</g>
<text id="Do you demand unquestioning deferential respect from your employees?" fill="#B9FED6" xml:space="preserve" style="white-space: pre" font-family="Dosis" font-size="14" font-weight="600" letter-spacing="0em"><tspan x="2407.28" y="1585.53">Do you demand </tspan><tspan x="2410.87" y="1603.53">unquestioning </tspan><tspan x="2397.98" y="1621.53">deferential respect </tspan><tspan x="2422.66" y="1639.53">from your </tspan><tspan x="2417.63" y="1657.53">employees?</tspan></text>
<g id="No_6">
<g id="Rectangle 5_4">
<rect x="2382" y="1699" width="50" height="29" rx="12" fill="black"/>
<rect x="2382.5" y="1699.5" width="49" height="28" rx="11.5" stroke="#7DAF92" stroke-opacity="0.4"/>
</g>
<text id="No_7" fill="#B9FED6" xml:space="preserve" style="white-space: pre" font-family="Dosis" font-size="14" font-weight="600" letter-spacing="0em"><tspan x="2399.47" y="1718.53">No</tspan></text>
</g>
<g id="Yes_3">
<g id="Rectangle 6_4">
<rect x="2466" y="1699" width="50" height="29" rx="12" fill="black"/>
<rect x="2466.5" y="1699.5" width="49" height="28" rx="11.5" stroke="#7DAF92" stroke-opacity="0.4"/>
</g>
<text id="Yes_4" fill="#B9FED6" xml:space="preserve" style="white-space: pre" font-family="Dosis" font-size="14" font-weight="600" letter-spacing="0em"><tspan x="2481.15" y="1717.53">Yes</tspan></text>
</g>
<path id="Union_7" fill-rule="evenodd" clip-rule="evenodd" d="M2511 1564H2512H2519H2520V1565V1678.34L2449 1693.9V1740H2448V1693.88L2413.26 1686.17L2378 1678.34V1565V1564H2379H2386H2387V1563V1556V1555H2388H2510H2511V1556V1563V1564ZM2511 1565H2519V1677.54L2448.53 1692.98L2413.48 1685.2L2379 1677.54V1565H2387H2388V1564V1556H2510V1564V1565H2511Z" fill="#7DAF92" fill-opacity="0.4"/>
<path id="Union_8" fill-rule="evenodd" clip-rule="evenodd" d="M2381 1737.5L2375 1739.5L2381 1741.5L2378.92 1740H2519.08L2517 1741.5L2523 1739.5L2517 1737.5L2519.08 1739H2378.92L2381 1737.5Z" fill="#7DAF92" fill-opacity="0.4"/>
</g>
<g id="question-writing2">
<g id="Rectangle 15_6">
<mask id="path-49-inside-12" fill="white">
<path d="M2602 600H2736V716.246L2668.55 731L2635.28 723.623L2602 716.246V600Z"/>
</mask>
<path d="M2602 600H2736V716.246L2668.55 731L2635.28 723.623L2602 716.246V600Z" stroke="#7DAF92" stroke-opacity="0.4" stroke-width="4" mask="url(#path-49-inside-12)"/>
</g>
<g id="Rectangle 16_6">
<mask id="path-50-inside-13" fill="white">
<path d="M2607 605H2731V712.372L2668.59 726L2637.79 719.186L2607 712.372V605Z"/>
</mask>
<path d="M2607 605H2731V712.372L2668.59 726L2637.79 719.186L2607 712.372V605Z" stroke="#7DAF92" stroke-opacity="0.4" stroke-width="2" mask="url(#path-50-inside-13)"/>
</g>
<text id="Do you value motivation, aptitude, and enthusiasm over a proven track record?" fill="#B9FED6" xml:space="preserve" style="white-space: pre" font-family="Dosis" font-size="14" font-weight="600" letter-spacing="0em"><tspan x="2633.58" y="634.53">Do you value </tspan><tspan x="2611.66" y="652.53">motivation, aptitude, </tspan><tspan x="2611.09" y="670.53">and enthusiasm over </tspan><tspan x="2629.13" y="688.53">a proven track </tspan><tspan x="2647.95" y="706.53">record?</tspan></text>
<g id="No_8">
<g id="Rectangle 5_5">
<rect x="2602" y="740" width="50" height="29" rx="12" fill="black"/>
<rect x="2602.5" y="740.5" width="49" height="28" rx="11.5" stroke="#7DAF92" stroke-opacity="0.4"/>
</g>
<text id="No_9" fill="#B9FED6" xml:space="preserve" style="white-space: pre" font-family="Dosis" font-size="14" font-weight="600" letter-spacing="0em"><tspan x="2619.47" y="759.53">No</tspan></text>
</g>
<g id="question-writing2-yes">
<g id="Rectangle 6_5">
<rect x="2686" y="740" width="50" height="29" rx="12" fill="black"/>
<rect x="2686.5" y="740.5" width="49" height="28" rx="11.5" stroke="#7DAF92" stroke-opacity="0.4"/>
</g>
<text id="Yes_5" fill="#B9FED6" xml:space="preserve" style="white-space: pre" font-family="Dosis" font-size="14" font-weight="600" letter-spacing="0em"><tspan x="2701.15" y="758.53">Yes</tspan></text>
</g>
<path id="Union_9" fill-rule="evenodd" clip-rule="evenodd" d="M2731 605H2732H2739H2740V606V719.345L2669 734.896V781H2668V734.883L2633.26 727.172L2598 719.345V606V605H2599H2606H2607V604V597V596H2608H2730H2731V597V604V605ZM2731 606H2739V718.54L2668.53 733.976L2633.48 726.196L2599 718.542V606H2607H2608V605V597H2730V605V606H2731Z" fill="#7DAF92" fill-opacity="0.4"/>
<path id="Union_10" fill-rule="evenodd" clip-rule="evenodd" d="M2601 778.5L2595 780.5L2601 782.5L2598.92 781H2739.08L2737 782.5L2743 780.5L2737 778.5L2739.08 780H2598.92L2601 778.5Z" fill="#7DAF92" fill-opacity="0.4"/>
</g>
<g id="question-writing3">
<g id="Rectangle 15_7">
<mask id="path-60-inside-14" fill="white">
<path d="M2043 241H2177V357.246L2109.55 372L2076.28 364.623L2043 357.246V241Z"/>
</mask>
<path d="M2043 241H2177V357.246L2109.55 372L2076.28 364.623L2043 357.246V241Z" stroke="#7DAF92" stroke-opacity="0.4" stroke-width="4" mask="url(#path-60-inside-14)"/>
</g>
<g id="Rectangle 16_7">
<mask id="path-61-inside-15" fill="white">
<path d="M2048 246H2172V353.372L2109.59 367L2078.79 360.186L2048 353.372V246Z"/>
</mask>
<path d="M2048 246H2172V353.372L2109.59 367L2078.79 360.186L2048 353.372V246Z" stroke="#7DAF92" stroke-opacity="0.4" stroke-width="2" mask="url(#path-61-inside-15)"/>
</g>
<text id="Are you looking for someone who loves (playing) narrative-driven games &#38; RPG&#226;&#128;&#153;s?" fill="#B9FED6" xml:space="preserve" style="white-space: pre" font-family="Dosis" font-size="14" font-weight="600" letter-spacing="0em"><tspan x="2057.6" y="269.53">Are you looking for </tspan><tspan x="2055.63" y="287.53">someone who loves </tspan><tspan x="2085.57" y="305.53">(playing)&#10;</tspan><tspan x="2064.07" y="323.53">narrative-driven </tspan><tspan x="2066.27" y="341.53">games &#38; RPG&#x2019;s?</tspan></text>
<g id="No_10">
<g id="Rectangle 5_6">
<rect x="2043" y="381" width="50" height="29" rx="12" fill="black"/>
<rect x="2043.5" y="381.5" width="49" height="28" rx="11.5" stroke="#7DAF92" stroke-opacity="0.4"/>
</g>
<text id="No_11" fill="#B9FED6" xml:space="preserve" style="white-space: pre" font-family="Dosis" font-size="14" font-weight="600" letter-spacing="0em"><tspan x="2060.47" y="400.53">No</tspan></text>
</g>
<g id="question-writing3-yes">
<g id="Rectangle 6_6">
<rect x="2127" y="381" width="50" height="29" rx="12" fill="black"/>
<rect x="2127.5" y="381.5" width="49" height="28" rx="11.5" stroke="#7DAF92" stroke-opacity="0.4"/>
</g>
<text id="Yes_6" fill="#B9FED6" xml:space="preserve" style="white-space: pre" font-family="Dosis" font-size="14" font-weight="600" letter-spacing="0em"><tspan x="2142.15" y="399.53">Yes</tspan></text>
</g>
<path id="Union_11" fill-rule="evenodd" clip-rule="evenodd" d="M2172 246H2173H2180H2181V247V360.345L2110 375.896V422H2109V375.883L2074.26 368.172L2039 360.345V247V246H2040H2047H2048V245V238V237H2049H2171H2172V238V245V246ZM2172 247H2180V359.54L2109.53 374.976L2074.48 367.196L2040 359.542V247H2048H2049V246V238H2171V246V247H2172Z" fill="#7DAF92" fill-opacity="0.4"/>
<path id="Union_12" fill-rule="evenodd" clip-rule="evenodd" d="M2042 419.5L2036 421.5L2042 423.5L2039.92 422H2180.08L2178 423.5L2184 421.5L2178 419.5L2180.08 421H2039.92L2042 419.5Z" fill="#7DAF92" fill-opacity="0.4"/>
</g>
<g id="question-writing1">
<g id="Rectangle 15_8">
<mask id="path-71-inside-16" fill="white">
<path d="M1713 802H1847V918.246L1779.55 933L1746.28 925.623L1713 918.246V802Z"/>
</mask>
<path d="M1713 802H1847V918.246L1779.55 933L1746.28 925.623L1713 918.246V802Z" stroke="#7DAF92" stroke-opacity="0.4" stroke-width="4" mask="url(#path-71-inside-16)"/>
</g>
<g id="Rectangle 16_8">
<mask id="path-72-inside-17" fill="white">
<path d="M1718 807H1842V914.372L1779.59 928L1748.79 921.186L1718 914.372V807Z"/>
</mask>
<path d="M1718 807H1842V914.372L1779.59 928L1748.79 921.186L1718 914.372V807Z" stroke="#7DAF92" stroke-opacity="0.4" stroke-width="2" mask="url(#path-72-inside-17)"/>
</g>
<text id="Do you want quirky, witty writing in a sharp, brisk style?" fill="#B9FED6" xml:space="preserve" style="white-space: pre" font-family="Dosis" font-size="14" font-weight="600" letter-spacing="0em"><tspan x="1725.41" y="845.53">Do you want quirky, </tspan><tspan x="1733.94" y="863.53">witty writing in a </tspan><tspan x="1730.36" y="881.53">sharp, brisk style?</tspan></text>
<g id="No_12">
<g id="Rectangle 5_7">
<rect x="1713" y="942" width="50" height="29" rx="12" fill="black"/>
<rect x="1713.5" y="942.5" width="49" height="28" rx="11.5" stroke="#7DAF92" stroke-opacity="0.4"/>
</g>
<text id="No_13" fill="#B9FED6" xml:space="preserve" style="white-space: pre" font-family="Dosis" font-size="14" font-weight="600" letter-spacing="0em"><tspan x="1730.47" y="961.53">No</tspan></text>
</g>
<g id="question-writing1-yes">
<g id="Rectangle 6_7">
<rect x="1797" y="942" width="50" height="29" rx="12" fill="black"/>
<rect x="1797.5" y="942.5" width="49" height="28" rx="11.5" stroke="#7DAF92" stroke-opacity="0.4"/>
</g>
<text id="Yes_7" fill="#B9FED6" xml:space="preserve" style="white-space: pre" font-family="Dosis" font-size="14" font-weight="600" letter-spacing="0em"><tspan x="1812.15" y="960.53">Yes</tspan></text>
</g>
<path id="Union_13" fill-rule="evenodd" clip-rule="evenodd" d="M1842 807H1843H1850H1851V808V921.345L1780 936.896V983H1779V936.883L1744.26 929.172L1709 921.345V808V807H1710H1717H1718V806V799V798H1719H1841H1842V799V806V807ZM1842 808H1850V920.54L1779.53 935.976L1744.48 928.196L1710 920.542V808H1718H1719V807V799H1841V807V808H1842Z" fill="#7DAF92" fill-opacity="0.4"/>
<path id="Union_14" fill-rule="evenodd" clip-rule="evenodd" d="M1712 980.5L1706 982.5L1712 984.5L1709.92 983H1850.08L1848 984.5L1854 982.5L1848 980.5L1850.08 982H1709.92L1712 980.5Z" fill="#7DAF92" fill-opacity="0.4"/>
</g>
<g id="bounce-writing1-1">
<text id="Good! Because I&#226;&#128;&#153;m concise." fill="#B9FED6" xml:space="preserve" style="white-space: pre" font-family="Dosis" font-size="14" font-weight="600" letter-spacing="0em"><tspan x="2060.95" y="1042.53">Good! Because I&#x2019;m </tspan><tspan x="2089.14" y="1060.53">concise.</tspan></text>
</g>
<g id="bounce-writing1-2">
<text id="And brief." fill="#B9FED6" xml:space="preserve" style="white-space: pre" font-family="Dosis" font-size="14" font-weight="600" letter-spacing="0em"><tspan x="2243.91" y="1165.53">And  brief.</tspan></text>
</g>
<g id="bounce-writing1-3">
<text id="To the point, really." fill="#B9FED6" xml:space="preserve" style="white-space: pre" font-family="Dosis" font-size="14" font-weight="600" letter-spacing="0em"><tspan x="2410.03" y="1057.53">To the point, really.</tspan></text>
</g>
<g id="bounce-writing1-4">
<text id="And I definitely don&#226;&#128;&#153;t repeat myself." fill="#B9FED6" xml:space="preserve" style="white-space: pre" font-family="Dosis" font-size="14" font-weight="600" letter-spacing="0em"><tspan x="2598.91" y="1182.53">And I definitely don&#x2019;t </tspan><tspan x="2616.65" y="1200.53">repeat myself.</tspan></text>
</g>
<g id="question-general2">
<g id="Rectangle 15_9">
<mask id="path-86-inside-18" fill="white">
<path d="M892 1320H1026V1436.25L958.553 1451L925.277 1443.62L892 1436.25V1320Z"/>
</mask>
<path d="M892 1320H1026V1436.25L958.553 1451L925.277 1443.62L892 1436.25V1320Z" stroke="#7DAF92" stroke-opacity="0.4" stroke-width="4" mask="url(#path-86-inside-18)"/>
</g>
<g id="Rectangle 16_9">
<mask id="path-87-inside-19" fill="white">
<path d="M897 1325H1021V1432.37L958.587 1446L927.793 1439.19L897 1432.37V1325Z"/>
</mask>
<path d="M897 1325H1021V1432.37L958.587 1446L927.793 1439.19L897 1432.37V1325Z" stroke="#7DAF92" stroke-opacity="0.4" stroke-width="2" mask="url(#path-87-inside-19)"/>
</g>
<text id="Is taking initatieve and/or individual thinking an executive management perogative?" fill="#B9FED6" xml:space="preserve" style="white-space: pre" font-family="Dosis" font-size="14" font-weight="600" letter-spacing="0em"><tspan x="909.735" y="1341.53">Is taking initatieve </tspan><tspan x="912.073" y="1359.53">and/or individual </tspan><tspan x="929.102" y="1377.53">thinking an </tspan><tspan x="933.415" y="1395.53">executive </tspan><tspan x="923.093" y="1413.53">management </tspan><tspan x="927.728" y="1431.53">perogative?</tspan></text>
<g id="No_14">
<g id="Rectangle 5_8">
<rect x="892" y="1460" width="50" height="29" rx="12" fill="black"/>
<rect x="892.5" y="1460.5" width="49" height="28" rx="11.5" stroke="#7DAF92" stroke-opacity="0.4"/>
</g>
<text id="No_15" fill="#B9FED6" xml:space="preserve" style="white-space: pre" font-family="Dosis" font-size="14" font-weight="600" letter-spacing="0em"><tspan x="909.474" y="1479.53">No</tspan></text>
</g>
<g id="question-general2-yes">
<g id="Rectangle 6_8">
<rect x="976" y="1460" width="50" height="29" rx="12" fill="black"/>
<rect x="976.5" y="1460.5" width="49" height="28" rx="11.5" stroke="#7DAF92" stroke-opacity="0.4"/>
</g>
<text id="Yes_8" fill="#B9FED6" xml:space="preserve" style="white-space: pre" font-family="Dosis" font-size="14" font-weight="600" letter-spacing="0em"><tspan x="991.148" y="1478.53">Yes</tspan></text>
</g>
<path id="Union_15" fill-rule="evenodd" clip-rule="evenodd" d="M1021 1325H1022H1029H1030V1326V1439.34L959 1454.9V1501H958V1454.88L923.263 1447.17L888 1439.34V1326V1325H889H896H897V1324V1317V1316H898H1020H1021V1317V1324V1325ZM1021 1326H1029V1438.54L958.528 1453.98L923.48 1446.2L889 1438.54V1326H897H898V1325V1317H1020V1325V1326H1021Z" fill="#7DAF92" fill-opacity="0.4"/>
<path id="Union_16" fill-rule="evenodd" clip-rule="evenodd" d="M891 1498.5L885 1500.5L891 1502.5L888.923 1501H1029.08L1027 1502.5L1033 1500.5L1027 1498.5L1029.08 1500H888.923L891 1498.5Z" fill="#7DAF92" fill-opacity="0.4"/>
</g>
<g id="question-general3">
<g id="Rectangle 15_10">
<mask id="path-97-inside-20" fill="white">
<path d="M1529 1669H1663V1785.25L1595.55 1800L1562.28 1792.62L1529 1785.25V1669Z"/>
</mask>
<path d="M1529 1669H1663V1785.25L1595.55 1800L1562.28 1792.62L1529 1785.25V1669Z" stroke="#7DAF92" stroke-opacity="0.4" stroke-width="4" mask="url(#path-97-inside-20)"/>
</g>
<g id="Rectangle 16_10">
<mask id="path-98-inside-21" fill="white">
<path d="M1534 1674H1658V1781.37L1595.59 1795L1564.79 1788.19L1534 1781.37V1674Z"/>
</mask>
<path d="M1534 1674H1658V1781.37L1595.59 1795L1564.79 1788.19L1534 1781.37V1674Z" stroke="#7DAF92" stroke-opacity="0.4" stroke-width="2" mask="url(#path-98-inside-21)"/>
</g>
<text id="Does micromanaging every half hour make you feel useful &#38; important?" fill="#B9FED6" xml:space="preserve" style="white-space: pre" font-family="Dosis" font-size="14" font-weight="600" letter-spacing="0em"><tspan x="1537.98" y="1705.53">Does micromanaging </tspan><tspan x="1536.99" y="1723.53">every half hour make </tspan><tspan x="1549.43" y="1741.53">you feel useful &#38; </tspan><tspan x="1565.22" y="1759.53">important?</tspan></text>
<g id="No_16">
<g id="Rectangle 5_9">
<rect x="1529" y="1809" width="50" height="29" rx="12" fill="black"/>
<rect x="1529.5" y="1809.5" width="49" height="28" rx="11.5" stroke="#7DAF92" stroke-opacity="0.4"/>
</g>
<text id="No_17" fill="#B9FED6" xml:space="preserve" style="white-space: pre" font-family="Dosis" font-size="14" font-weight="600" letter-spacing="0em"><tspan x="1546.47" y="1828.53">No</tspan></text>
</g>
<g id="question-general3-yes">
<g id="Rectangle 6_9">
<rect x="1613" y="1809" width="50" height="29" rx="12" fill="black"/>
<rect x="1613.5" y="1809.5" width="49" height="28" rx="11.5" stroke="#7DAF92" stroke-opacity="0.4"/>
</g>
<text id="Yes_9" fill="#B9FED6" xml:space="preserve" style="white-space: pre" font-family="Dosis" font-size="14" font-weight="600" letter-spacing="0em"><tspan x="1628.15" y="1827.53">Yes</tspan></text>
</g>
<path id="Union_17" fill-rule="evenodd" clip-rule="evenodd" d="M1658 1674H1659H1666H1667V1675V1788.34L1596 1803.9V1850H1595V1803.88L1560.26 1796.17L1525 1788.34V1675V1674H1526H1533H1534V1673V1666V1665H1535H1657H1658V1666V1673V1674ZM1658 1675H1666V1787.54L1595.53 1802.98L1560.48 1795.2L1526 1787.54V1675H1534H1535V1674V1666H1657V1674V1675H1658Z" fill="#7DAF92" fill-opacity="0.4"/>
<path id="Union_18" fill-rule="evenodd" clip-rule="evenodd" d="M1528 1847.5L1522 1849.5L1528 1851.5L1525.92 1850H1666.08L1664 1851.5L1670 1849.5L1664 1847.5L1666.08 1849H1525.92L1528 1847.5Z" fill="#7DAF92" fill-opacity="0.4"/>
</g>
<path id="Line 3" d="M1601.56 1308.76L1779.5 983" stroke="url(#paint1_linear)" stroke-opacity="0.2"/>
<path id="Line 7" d="M2109.5 422.5L2135.5 467L2871.4 543.846L2746.11 748.96" stroke="url(#paint2_linear)" stroke-opacity="0.2"/>
<path id="Line 5" d="M1893.89 954.512L2026.5 1021.5" stroke="url(#paint3_linear)" stroke-opacity="0.2"/>
<path id="Line 8" d="M2172 1064.13L2250 1137.5" stroke="url(#paint4_linear)" stroke-opacity="0.2"/>
<path id="Line 10" d="M2669.5 800L2669.5 1154.87" stroke="url(#paint5_linear)" stroke-opacity="0.2"/>
<path id="Line 9" d="M2491.5 1081L2585.5 1168.87" stroke="url(#paint6_linear)" stroke-opacity="0.2"/>
<path id="Line 11" d="M2316 1163.5L2450.5 1079" stroke="url(#paint7_linear)" stroke-opacity="0.2"/>
<line id="Line 4" x1="2722.76" y1="1551.44" x2="1737.76" y2="1001.44" stroke="url(#paint8_linear)" stroke-opacity="0.1"/>
<rect x="0.5" y="0.5" width="2999" height="2499" stroke="black"/>
</g>
<defs>
<linearGradient id="paint0_linear" x1="2792.96" y1="225.548" x2="2573.28" y2="751.99" gradientUnits="userSpaceOnUse">
<stop stop-color="#7DAF92"/>
<stop offset="0.509031" stop-color="#B9FED6"/>
<stop offset="1" stop-color="#7DAF92"/>
</linearGradient>
<linearGradient id="paint1_linear" x1="1591.73" y1="1304.57" x2="1773.11" y2="984.109" gradientUnits="userSpaceOnUse">
<stop stop-color="#7DAF92"/>
<stop offset="0.509031" stop-color="#B9FED6"/>
<stop offset="1" stop-color="#7DAF92"/>
</linearGradient>
<linearGradient id="paint2_linear" x1="-107602" y1="-59481.3" x2="-107594" y2="-59497.6" gradientUnits="userSpaceOnUse">
<stop stop-color="#7DAF92"/>
<stop offset="0.509031" stop-color="#B9FED6"/>
<stop offset="1" stop-color="#7DAF92"/>
</linearGradient>
<linearGradient id="paint3_linear" x1="1889.4" y1="944.618" x2="2662.63" y2="797.354" gradientUnits="userSpaceOnUse">
<stop stop-color="#7DAF92"/>
<stop offset="0.509031" stop-color="#B9FED6"/>
<stop offset="1" stop-color="#7DAF92"/>
</linearGradient>
<linearGradient id="paint4_linear" x1="2167.5" y1="1054.24" x2="2940.74" y2="906.971" gradientUnits="userSpaceOnUse">
<stop stop-color="#7DAF92"/>
<stop offset="0.509031" stop-color="#B9FED6"/>
<stop offset="1" stop-color="#7DAF92"/>
</linearGradient>
<linearGradient id="paint5_linear" x1="2521.51" y1="1099.61" x2="3294.74" y2="952.348" gradientUnits="userSpaceOnUse">
<stop stop-color="#7DAF92"/>
<stop offset="0.509031" stop-color="#B9FED6"/>
<stop offset="1" stop-color="#7DAF92"/>
</linearGradient>
<linearGradient id="paint6_linear" x1="2437.5" y1="1113.6" x2="3210.74" y2="966.331" gradientUnits="userSpaceOnUse">
<stop stop-color="#7DAF92"/>
<stop offset="0.509031" stop-color="#B9FED6"/>
<stop offset="1" stop-color="#7DAF92"/>
</linearGradient>
<linearGradient id="paint7_linear" x1="2366.5" y1="1204.59" x2="3139.74" y2="1057.32" gradientUnits="userSpaceOnUse">
<stop stop-color="#7DAF92"/>
<stop offset="0.509031" stop-color="#B9FED6"/>
<stop offset="1" stop-color="#7DAF92"/>
</linearGradient>
<linearGradient id="paint8_linear" x1="2720.32" y1="1562.26" x2="1771.02" y2="972.884" gradientUnits="userSpaceOnUse">
<stop stop-color="#7DAF92"/>
<stop offset="0.509031" stop-color="#B9FED6"/>
<stop offset="1" stop-color="#7DAF92"/>
</linearGradient>
</defs>
</svg>
